<mxfile host="Electron" modified="2024-06-27T22:51:58.884Z" agent="Mozilla/5.0 (Macintosh; Intel Mac OS X 10_15_7) AppleWebKit/537.36 (KHTML, like Gecko) draw.io/24.4.8 Chrome/124.0.6367.207 Electron/30.0.6 Safari/537.36" etag="m7zXW2jS8P8fYZTjQAqA" version="24.4.8" type="device">
  <diagram name="Page-1" id="dOy_JTWbOP4DsqO4voi2">
    <mxGraphModel dx="1026" dy="659" grid="1" gridSize="10" guides="1" tooltips="1" connect="1" arrows="1" fold="1" page="1" pageScale="1" pageWidth="827" pageHeight="1169" math="0" shadow="0">
      <root>
        <mxCell id="0" />
        <mxCell id="1" parent="0" />
        <mxCell id="R-u_yr59Z5yNIQ2PeN1e-1" value="UAV" style="rounded=1;whiteSpace=wrap;html=1;" parent="1" vertex="1">
          <mxGeometry x="40" y="50" width="120" height="40" as="geometry" />
        </mxCell>
        <mxCell id="R-u_yr59Z5yNIQ2PeN1e-5" value="&lt;div style=&quot;font-size: 15px;&quot;&gt;Simulation Bed:&lt;/div&gt;Movement Integration&lt;div style=&quot;font-size: 15px;&quot;&gt;Message Delivery (Range Constrained)&lt;/div&gt;" style="rounded=0;whiteSpace=wrap;html=1;fontSize=15;" parent="1" vertex="1">
          <mxGeometry x="29" y="260" width="730" height="70" as="geometry" />
        </mxCell>
        <mxCell id="R-u_yr59Z5yNIQ2PeN1e-7" value="" style="html=1;shadow=0;dashed=0;align=center;verticalAlign=middle;shape=mxgraph.arrows2.arrow;dy=0.6;dx=40;direction=south;notch=0;strokeColor=#3333FF;" parent="1" vertex="1">
          <mxGeometry x="110" y="90" width="10" height="170" as="geometry" />
        </mxCell>
        <mxCell id="R-u_yr59Z5yNIQ2PeN1e-8" value="" style="html=1;shadow=0;dashed=0;align=center;verticalAlign=middle;shape=mxgraph.arrows2.arrow;dy=0.6;dx=40;direction=north;notch=0;strokeColor=#3333FF;" parent="1" vertex="1">
          <mxGeometry x="140" y="90" width="10" height="170" as="geometry" />
        </mxCell>
        <mxCell id="R-u_yr59Z5yNIQ2PeN1e-10" value="" style="html=1;shadow=0;dashed=0;align=center;verticalAlign=middle;shape=mxgraph.arrows2.arrow;dy=0.6;dx=40;direction=south;notch=0;strokeColor=#009900;" parent="1" vertex="1">
          <mxGeometry x="50" y="90" width="10" height="170" as="geometry" />
        </mxCell>
        <mxCell id="R-u_yr59Z5yNIQ2PeN1e-11" value="" style="html=1;shadow=0;dashed=0;align=center;verticalAlign=middle;shape=mxgraph.arrows2.arrow;dy=0.6;dx=40;direction=north;notch=0;strokeColor=#009900;" parent="1" vertex="1">
          <mxGeometry x="80" y="90" width="10" height="170" as="geometry" />
        </mxCell>
        <mxCell id="R-u_yr59Z5yNIQ2PeN1e-12" value="Position" style="text;html=1;align=center;verticalAlign=middle;whiteSpace=wrap;rounded=0;direction=east;flipV=0;flipH=1;rotation=270;" parent="1" vertex="1">
          <mxGeometry x="40" y="160" width="70" height="20" as="geometry" />
        </mxCell>
        <mxCell id="R-u_yr59Z5yNIQ2PeN1e-13" value="Acceleration" style="text;html=1;align=center;verticalAlign=middle;whiteSpace=wrap;rounded=0;direction=east;flipV=0;flipH=1;rotation=270;" parent="1" vertex="1">
          <mxGeometry x="10" y="160" width="70" height="20" as="geometry" />
        </mxCell>
        <mxCell id="R-u_yr59Z5yNIQ2PeN1e-14" value="Received Messages" style="text;html=1;align=center;verticalAlign=middle;whiteSpace=wrap;rounded=0;direction=east;flipV=0;flipH=1;rotation=270;" parent="1" vertex="1">
          <mxGeometry x="100" y="165" width="117.5" height="20" as="geometry" />
        </mxCell>
        <mxCell id="R-u_yr59Z5yNIQ2PeN1e-15" value="Sent Messages" style="text;html=1;align=center;verticalAlign=middle;whiteSpace=wrap;rounded=0;direction=east;flipV=0;flipH=1;rotation=270;" parent="1" vertex="1">
          <mxGeometry x="80" y="160" width="90" height="20" as="geometry" />
        </mxCell>
        <mxCell id="R-u_yr59Z5yNIQ2PeN1e-21" value="UAV" style="rounded=1;whiteSpace=wrap;html=1;" parent="1" vertex="1">
          <mxGeometry x="230" y="50" width="120" height="40" as="geometry" />
        </mxCell>
        <mxCell id="R-u_yr59Z5yNIQ2PeN1e-22" value="" style="html=1;shadow=0;dashed=0;align=center;verticalAlign=middle;shape=mxgraph.arrows2.arrow;dy=0.6;dx=40;direction=south;notch=0;strokeColor=#3333FF;" parent="1" vertex="1">
          <mxGeometry x="300" y="90" width="10" height="170" as="geometry" />
        </mxCell>
        <mxCell id="R-u_yr59Z5yNIQ2PeN1e-23" value="" style="html=1;shadow=0;dashed=0;align=center;verticalAlign=middle;shape=mxgraph.arrows2.arrow;dy=0.6;dx=40;direction=north;notch=0;strokeColor=#3333FF;" parent="1" vertex="1">
          <mxGeometry x="330" y="90" width="10" height="170" as="geometry" />
        </mxCell>
        <mxCell id="R-u_yr59Z5yNIQ2PeN1e-24" value="" style="html=1;shadow=0;dashed=0;align=center;verticalAlign=middle;shape=mxgraph.arrows2.arrow;dy=0.6;dx=40;direction=south;notch=0;strokeColor=#009900;" parent="1" vertex="1">
          <mxGeometry x="240" y="90" width="10" height="170" as="geometry" />
        </mxCell>
        <mxCell id="R-u_yr59Z5yNIQ2PeN1e-25" value="" style="html=1;shadow=0;dashed=0;align=center;verticalAlign=middle;shape=mxgraph.arrows2.arrow;dy=0.6;dx=40;direction=north;notch=0;strokeColor=#009900;" parent="1" vertex="1">
          <mxGeometry x="270" y="90" width="10" height="170" as="geometry" />
        </mxCell>
        <mxCell id="R-u_yr59Z5yNIQ2PeN1e-30" value="UAV" style="rounded=1;whiteSpace=wrap;html=1;" parent="1" vertex="1">
          <mxGeometry x="420" y="50" width="120" height="40" as="geometry" />
        </mxCell>
        <mxCell id="R-u_yr59Z5yNIQ2PeN1e-31" value="" style="html=1;shadow=0;dashed=0;align=center;verticalAlign=middle;shape=mxgraph.arrows2.arrow;dy=0.6;dx=40;direction=south;notch=0;strokeColor=#3333FF;" parent="1" vertex="1">
          <mxGeometry x="490" y="90" width="10" height="170" as="geometry" />
        </mxCell>
        <mxCell id="R-u_yr59Z5yNIQ2PeN1e-32" value="" style="html=1;shadow=0;dashed=0;align=center;verticalAlign=middle;shape=mxgraph.arrows2.arrow;dy=0.6;dx=40;direction=north;notch=0;strokeColor=#3333FF;" parent="1" vertex="1">
          <mxGeometry x="520" y="90" width="10" height="170" as="geometry" />
        </mxCell>
        <mxCell id="R-u_yr59Z5yNIQ2PeN1e-33" value="" style="html=1;shadow=0;dashed=0;align=center;verticalAlign=middle;shape=mxgraph.arrows2.arrow;dy=0.6;dx=40;direction=south;notch=0;strokeColor=#009900;" parent="1" vertex="1">
          <mxGeometry x="430" y="90" width="10" height="170" as="geometry" />
        </mxCell>
        <mxCell id="R-u_yr59Z5yNIQ2PeN1e-34" value="" style="html=1;shadow=0;dashed=0;align=center;verticalAlign=middle;shape=mxgraph.arrows2.arrow;dy=0.6;dx=40;direction=north;notch=0;strokeColor=#009900;" parent="1" vertex="1">
          <mxGeometry x="460" y="90" width="10" height="170" as="geometry" />
        </mxCell>
        <mxCell id="R-u_yr59Z5yNIQ2PeN1e-36" value="&lt;span style=&quot;background-color: initial; font-size: 15px;&quot;&gt;Inter-process Communication:&lt;/span&gt;&lt;br style=&quot;font-size: 15px;&quot;&gt;&lt;ul style=&quot;font-size: 15px;&quot;&gt;&lt;li style=&quot;font-size: 15px;&quot;&gt;&lt;span style=&quot;background-color: initial; font-size: 15px;&quot;&gt;Socket&lt;/span&gt;&lt;/li&gt;&lt;li style=&quot;font-size: 15px;&quot;&gt;&lt;span style=&quot;background-color: initial; font-size: 15px;&quot;&gt;ROS&lt;/span&gt;&lt;/li&gt;&lt;/ul&gt;" style="text;html=1;align=left;verticalAlign=middle;whiteSpace=wrap;rounded=0;fontSize=15;" parent="1" vertex="1">
          <mxGeometry x="570" y="130" width="220" height="100" as="geometry" />
        </mxCell>
        <mxCell id="R-u_yr59Z5yNIQ2PeN1e-37" value="" style="ellipse;whiteSpace=wrap;html=1;aspect=fixed;strokeWidth=5;" parent="1" vertex="1">
          <mxGeometry x="496" y="460" width="20" height="20" as="geometry" />
        </mxCell>
        <mxCell id="R-u_yr59Z5yNIQ2PeN1e-38" value="" style="ellipse;whiteSpace=wrap;html=1;aspect=fixed;strokeWidth=3;" parent="1" vertex="1">
          <mxGeometry x="290" y="650" width="20" height="20" as="geometry" />
        </mxCell>
        <mxCell id="R-u_yr59Z5yNIQ2PeN1e-39" value="" style="ellipse;whiteSpace=wrap;html=1;aspect=fixed;strokeWidth=3;" parent="1" vertex="1">
          <mxGeometry x="197.5" y="700" width="20" height="20" as="geometry" />
        </mxCell>
        <mxCell id="R-u_yr59Z5yNIQ2PeN1e-40" value="" style="ellipse;whiteSpace=wrap;html=1;aspect=fixed;strokeWidth=5;" parent="1" vertex="1">
          <mxGeometry x="536" y="520" width="20" height="20" as="geometry" />
        </mxCell>
        <mxCell id="R-u_yr59Z5yNIQ2PeN1e-41" value="" style="ellipse;whiteSpace=wrap;html=1;aspect=fixed;strokeWidth=5;" parent="1" vertex="1">
          <mxGeometry x="480" y="590" width="20" height="20" as="geometry" />
        </mxCell>
        <mxCell id="R-u_yr59Z5yNIQ2PeN1e-42" value="" style="ellipse;whiteSpace=wrap;html=1;aspect=fixed;strokeWidth=3;" parent="1" vertex="1">
          <mxGeometry x="666" y="590" width="20" height="20" as="geometry" />
        </mxCell>
        <mxCell id="R-u_yr59Z5yNIQ2PeN1e-43" value="" style="ellipse;whiteSpace=wrap;html=1;aspect=fixed;strokeWidth=3;" parent="1" vertex="1">
          <mxGeometry x="706" y="650" width="20" height="20" as="geometry" />
        </mxCell>
        <mxCell id="R-u_yr59Z5yNIQ2PeN1e-44" value="" style="ellipse;whiteSpace=wrap;html=1;aspect=fixed;" parent="1" vertex="1">
          <mxGeometry x="35" y="480" width="20" height="20" as="geometry" />
        </mxCell>
        <mxCell id="R-u_yr59Z5yNIQ2PeN1e-45" value="" style="ellipse;whiteSpace=wrap;html=1;aspect=fixed;strokeWidth=3;" parent="1" vertex="1">
          <mxGeometry x="170" y="610" width="20" height="20" as="geometry" />
        </mxCell>
        <mxCell id="R-u_yr59Z5yNIQ2PeN1e-48" value="" style="endArrow=classic;startArrow=classic;html=1;rounded=0;entryX=1;entryY=1;entryDx=0;entryDy=0;exitX=0;exitY=0;exitDx=0;exitDy=0;" parent="1" source="R-u_yr59Z5yNIQ2PeN1e-40" target="R-u_yr59Z5yNIQ2PeN1e-37" edge="1">
          <mxGeometry width="50" height="50" relative="1" as="geometry">
            <mxPoint x="460" y="630" as="sourcePoint" />
            <mxPoint x="510" y="580" as="targetPoint" />
          </mxGeometry>
        </mxCell>
        <mxCell id="R-u_yr59Z5yNIQ2PeN1e-50" value="" style="endArrow=classic;startArrow=classic;html=1;rounded=0;entryX=0;entryY=1;entryDx=0;entryDy=0;exitX=1;exitY=0;exitDx=0;exitDy=0;" parent="1" source="R-u_yr59Z5yNIQ2PeN1e-41" target="R-u_yr59Z5yNIQ2PeN1e-40" edge="1">
          <mxGeometry width="50" height="50" relative="1" as="geometry">
            <mxPoint x="460" y="630" as="sourcePoint" />
            <mxPoint x="510" y="580" as="targetPoint" />
          </mxGeometry>
        </mxCell>
        <mxCell id="R-u_yr59Z5yNIQ2PeN1e-51" value="" style="endArrow=classic;startArrow=classic;html=1;rounded=0;exitX=1;exitY=0.5;exitDx=0;exitDy=0;entryX=0;entryY=1;entryDx=0;entryDy=0;" parent="1" source="R-u_yr59Z5yNIQ2PeN1e-39" target="R-u_yr59Z5yNIQ2PeN1e-38" edge="1">
          <mxGeometry width="50" height="50" relative="1" as="geometry">
            <mxPoint x="460" y="630" as="sourcePoint" />
            <mxPoint x="510" y="580" as="targetPoint" />
          </mxGeometry>
        </mxCell>
        <mxCell id="R-u_yr59Z5yNIQ2PeN1e-52" value="" style="ellipse;whiteSpace=wrap;html=1;aspect=fixed;" parent="1" vertex="1">
          <mxGeometry x="140" y="500" width="20" height="20" as="geometry" />
        </mxCell>
        <mxCell id="R-u_yr59Z5yNIQ2PeN1e-53" value="" style="endArrow=classic;startArrow=classic;html=1;rounded=0;exitX=1;exitY=0.5;exitDx=0;exitDy=0;entryX=0;entryY=0;entryDx=0;entryDy=0;" parent="1" source="R-u_yr59Z5yNIQ2PeN1e-45" target="R-u_yr59Z5yNIQ2PeN1e-38" edge="1">
          <mxGeometry width="50" height="50" relative="1" as="geometry">
            <mxPoint x="460" y="630" as="sourcePoint" />
            <mxPoint x="510" y="580" as="targetPoint" />
          </mxGeometry>
        </mxCell>
        <mxCell id="R-u_yr59Z5yNIQ2PeN1e-54" value="" style="endArrow=classic;startArrow=classic;html=1;rounded=0;entryX=0.5;entryY=1;entryDx=0;entryDy=0;exitX=0;exitY=0;exitDx=0;exitDy=0;" parent="1" source="R-u_yr59Z5yNIQ2PeN1e-39" target="R-u_yr59Z5yNIQ2PeN1e-45" edge="1">
          <mxGeometry width="50" height="50" relative="1" as="geometry">
            <mxPoint x="460" y="630" as="sourcePoint" />
            <mxPoint x="510" y="580" as="targetPoint" />
          </mxGeometry>
        </mxCell>
        <mxCell id="R-u_yr59Z5yNIQ2PeN1e-55" value="" style="endArrow=classic;startArrow=classic;html=1;rounded=0;entryX=0;entryY=0;entryDx=0;entryDy=0;exitX=1;exitY=1;exitDx=0;exitDy=0;" parent="1" source="R-u_yr59Z5yNIQ2PeN1e-42" target="R-u_yr59Z5yNIQ2PeN1e-43" edge="1">
          <mxGeometry width="50" height="50" relative="1" as="geometry">
            <mxPoint x="460" y="630" as="sourcePoint" />
            <mxPoint x="510" y="580" as="targetPoint" />
          </mxGeometry>
        </mxCell>
        <mxCell id="R-u_yr59Z5yNIQ2PeN1e-56" value="" style="endArrow=classic;startArrow=classic;html=1;rounded=0;entryX=1;entryY=0.5;entryDx=0;entryDy=0;exitX=0;exitY=0.5;exitDx=0;exitDy=0;" parent="1" source="R-u_yr59Z5yNIQ2PeN1e-52" target="R-u_yr59Z5yNIQ2PeN1e-44" edge="1">
          <mxGeometry width="50" height="50" relative="1" as="geometry">
            <mxPoint x="460" y="630" as="sourcePoint" />
            <mxPoint x="510" y="580" as="targetPoint" />
          </mxGeometry>
        </mxCell>
        <mxCell id="R-u_yr59Z5yNIQ2PeN1e-57" value="" style="endArrow=classic;startArrow=classic;html=1;rounded=0;exitX=1;exitY=0.5;exitDx=0;exitDy=0;entryX=0;entryY=0.5;entryDx=0;entryDy=0;strokeColor=#FF0000;" parent="1" source="R-u_yr59Z5yNIQ2PeN1e-38" target="R-u_yr59Z5yNIQ2PeN1e-41" edge="1">
          <mxGeometry width="50" height="50" relative="1" as="geometry">
            <mxPoint x="460" y="630" as="sourcePoint" />
            <mxPoint x="510" y="580" as="targetPoint" />
          </mxGeometry>
        </mxCell>
        <mxCell id="R-u_yr59Z5yNIQ2PeN1e-58" value="" style="endArrow=classic;startArrow=classic;html=1;rounded=0;exitX=0;exitY=0;exitDx=0;exitDy=0;entryX=1;entryY=1;entryDx=0;entryDy=0;strokeColor=#FF0000;" parent="1" source="R-u_yr59Z5yNIQ2PeN1e-42" target="R-u_yr59Z5yNIQ2PeN1e-40" edge="1">
          <mxGeometry width="50" height="50" relative="1" as="geometry">
            <mxPoint x="320" y="670" as="sourcePoint" />
            <mxPoint x="490" y="610" as="targetPoint" />
          </mxGeometry>
        </mxCell>
        <mxCell id="R-u_yr59Z5yNIQ2PeN1e-59" value="" style="endArrow=classic;startArrow=classic;html=1;rounded=0;exitX=0.5;exitY=0;exitDx=0;exitDy=0;entryX=0.5;entryY=1;entryDx=0;entryDy=0;strokeColor=#FF0000;" parent="1" source="R-u_yr59Z5yNIQ2PeN1e-45" target="R-u_yr59Z5yNIQ2PeN1e-52" edge="1">
          <mxGeometry width="50" height="50" relative="1" as="geometry">
            <mxPoint x="679" y="603" as="sourcePoint" />
            <mxPoint x="563" y="547" as="targetPoint" />
          </mxGeometry>
        </mxCell>
        <mxCell id="R-u_yr59Z5yNIQ2PeN1e-60" value="Level 1" style="text;html=1;align=center;verticalAlign=middle;whiteSpace=wrap;rounded=0;" parent="1" vertex="1">
          <mxGeometry x="450" y="510" width="60" height="30" as="geometry" />
        </mxCell>
        <mxCell id="R-u_yr59Z5yNIQ2PeN1e-61" value="Level 2" style="text;html=1;align=center;verticalAlign=middle;whiteSpace=wrap;rounded=0;" parent="1" vertex="1">
          <mxGeometry x="260" y="695" width="60" height="30" as="geometry" />
        </mxCell>
        <mxCell id="R-u_yr59Z5yNIQ2PeN1e-62" value="Level 2" style="text;html=1;align=center;verticalAlign=middle;whiteSpace=wrap;rounded=0;" parent="1" vertex="1">
          <mxGeometry x="626" y="630" width="60" height="30" as="geometry" />
        </mxCell>
        <mxCell id="R-u_yr59Z5yNIQ2PeN1e-63" value="Level 3" style="text;html=1;align=center;verticalAlign=middle;whiteSpace=wrap;rounded=0;" parent="1" vertex="1">
          <mxGeometry x="70" y="450" width="60" height="30" as="geometry" />
        </mxCell>
        <mxCell id="R-u_yr59Z5yNIQ2PeN1e-65" value="Graph Keeping:&lt;div style=&quot;font-size: 15px;&quot;&gt;&lt;ul style=&quot;font-size: 15px;&quot;&gt;&lt;li style=&quot;font-size: 15px;&quot;&gt;Merge Graphs&lt;/li&gt;&lt;li style=&quot;font-size: 15px;&quot;&gt;&lt;font color=&quot;#ff0000&quot;&gt;Re-graph According to Tasks/Positions&lt;/font&gt;&lt;/li&gt;&lt;li style=&quot;font-size: 15px;&quot;&gt;&lt;font color=&quot;#ff0000&quot;&gt;Balance Subgraphs&lt;/font&gt;&lt;/li&gt;&lt;li style=&quot;font-size: 15px;&quot;&gt;Consensus Algorithm within a Group of UAVs&lt;br&gt;&lt;/li&gt;&lt;/ul&gt;&lt;/div&gt;" style="text;html=1;align=left;verticalAlign=middle;whiteSpace=wrap;rounded=0;fontSize=15;" parent="1" vertex="1">
          <mxGeometry x="28" y="850" width="352" height="120" as="geometry" />
        </mxCell>
        <mxCell id="sjB_3AdzFpJV5kdC9Lz2-1" value="Behavioural Path Planning:&lt;div style=&quot;font-size: 15px;&quot;&gt;&lt;ul style=&quot;font-size: 15px;&quot;&gt;&lt;li style=&quot;font-size: 15px;&quot;&gt;Maintain Communication Range&lt;/li&gt;&lt;li style=&quot;font-size: 15px;&quot;&gt;Collision Avoidance&lt;br&gt;&lt;/li&gt;&lt;li style=&quot;font-size: 15px;&quot;&gt;Assigned Hovering Point&lt;/li&gt;&lt;/ul&gt;&lt;/div&gt;" style="text;html=1;align=left;verticalAlign=middle;whiteSpace=wrap;rounded=0;fontSize=15;" vertex="1" parent="1">
          <mxGeometry x="430" y="850" width="379" height="110" as="geometry" />
        </mxCell>
        <mxCell id="sjB_3AdzFpJV5kdC9Lz2-2" value="&lt;div style=&quot;font-size: 15px;&quot;&gt;&lt;span style=&quot;background-color: initial;&quot;&gt;User Assigned Geometric Shape:&lt;/span&gt;&lt;br&gt;&lt;ul style=&quot;font-size: 15px;&quot;&gt;&lt;li style=&quot;font-size: 15px;&quot;&gt;&lt;span style=&quot;color: rgb(255, 0, 0); background-color: initial;&quot;&gt;Divide the Shape into Different Parts&lt;/span&gt;&lt;br&gt;&lt;/li&gt;&lt;/ul&gt;&lt;/div&gt;" style="text;html=1;align=left;verticalAlign=middle;whiteSpace=wrap;rounded=0;fontSize=15;" vertex="1" parent="1">
          <mxGeometry x="28" y="1040" width="386" height="70" as="geometry" />
        </mxCell>
        <mxCell id="sjB_3AdzFpJV5kdC9Lz2-3" value="Communication Graph" style="text;html=1;align=center;verticalAlign=middle;whiteSpace=wrap;rounded=0;fontSize=15;" vertex="1" parent="1">
          <mxGeometry x="270" y="520" width="120" height="40" as="geometry" />
        </mxCell>
      </root>
    </mxGraphModel>
  </diagram>
</mxfile>
